<?xml version="1.0" encoding="utf-8"?>
<!-- Generator: Adobe Illustrator 26.3.1, SVG Export Plug-In . SVG Version: 6.00 Build 0)  -->
<svg version="1.1" id="a" xmlns="http://www.w3.org/2000/svg" xmlns:xlink="http://www.w3.org/1999/xlink" x="0px" y="0px"
	 viewBox="0 0 720 432" style="enable-background:new 0 0 720 432;" xml:space="preserve">
<style type="text/css">
	.st0{fill:#2E14D9;}
	.st1{fill:none;stroke:#F2F2F0;stroke-miterlimit:10;}
	.st2{fill:#F2F2F0;}
	.st3{enable-background:new    ;}
	.st4{fill:none;}
</style>
<rect class="st0" width="720" height="432"/>
<g>
	<circle class="st1" cx="359.6" cy="209.1" r="37.8"/>
	<path class="st2" d="M341.9,175.8c0,0,1.2,1.1,2.2,2s1.2,1.6,1.7,1.6s1.2,0.1,2,0.9c0.8,0.8,0.5,0.3,0.5-0.6c0-0.9,0-1.3,0.1-1.8
		s1.6,0.3,1.8,0.5c0.2,0.2,1.6,0.1,1.6,0.6s-1,0.7-1,1.2s0,0,1.2-0.1c1.2-0.1,0.4-0.7,1.2-0.6c0.8,0.1,1.5,0.7,2.2,1.5
		c0.7,0.8,0.3,1.3,0,2c-0.3,0.7-2.5-0.3-3.7-0.4c-1.2-0.1-0.5,1.7-0.2,2.7c0.3,1,1.6,0.8,2.6,0.8s0.7,1.4,1.3,2.1s0.9-0.2,1-0.8
		s-0.1-1.6-0.2-2.4c-0.1-0.8-0.5-1.3,0.6-2.2s2.3,0.8,3.2,0.8s0.6-0.8,1.2-0.5c0.6,0.3,0.5,1,0.9,1.6s1.7,0.9,2.7,1.5s0.9,1,1.6,1.1
		c0.7,0.1,1.5,1.8,1,1.8s-2.1,0.3-2.4,0c-0.3-0.3,0-1.5-0.6-2.1s-1.2,0.5-1.8,1.1c-0.6,0.6-0.4,1.7,0.3,2.1c0.7,0.4,1.9-0.8,1.5-0.3
		s-1.2,1.6-1.6,1.8c-0.4,0.2-1.5,0.1-2.2,0.4c-0.7,0.3,0,1.2,0,1.7s-0.9,0.1-1.4,0.1s-3.4,4.8-3.7,5.7c-0.3,0.9,0.7,4.1,0.5,4.3
		c-0.2,0.2-2.1-1.6-2.2-2.1c-0.1-0.5-1.7-1.4-2.7-1.4s-0.5,1.1-0.9,1.3s-0.7-0.4-1.9-0.6c-1.2-0.2-2.2,1.6-2.5,2.3
		c-0.3,0.7,0.6,3,0.6,3.9s2.1,0.6,2.8,0.4c0.7-0.2,0.4-0.7,0.6-1.4s1.6-0.6,2-0.1s-0.4,3,0.1,3.2s1.6-0.4,2.1,0.3s0.6,3.2,1.1,3.5
		s2.7,0.1,3.6,0.1c0.9,0,2.1-1.7,2.6-2.2s3.9,0.5,4.7,0.5c0.8,0,1.6-0.9,2.5-0.9s0.4,1.4,1.3,1.9c0.9,0.5,2.1,0.9,3.5,0.9
		s1,0.8,2,1.2s0.7,1.1,1,1.7c0.3,0.6,1.9,0.6,2.5,0.6s1.3,0.3,2.2,0.3s2.3,0.1,3.2,0.4s0,1.2,0,2.2s-1.8,2.6-2.3,3.2s0.1,1.3,0,2.3
		s-0.7,2.5-1.6,3.1c-0.9,0.6-3,2.1-3.7,2.8c-0.7,0.7-2.6,4-2.9,4.4s-1.5,0.6-2.3,0.6c-0.8,0-0.5,0.6-0.6,1.5s-2,1-2.4,1.3
		s-1.8,0.8-1.9,1.4c-0.1,0.6,0,1.8-0.3,2c-0.3,0.2-1.1,0-1.1,0.4s0.7,0.6,1.4,0.7c0.7,0.1-0.2,0.6-0.4,0.7c-0.2,0.1-2.5-0.4-3.2-0.7
		c-0.7-0.3-0.4-3.1-0.5-3.9s0.9-2.1,1.3-3c0.4-0.9,0.4-5,0-6.9c-1.8,0-6.7-6.1-7.1-6.6c-0.4-0.5-0.5-0.9-0.1-1.2s0.1-2.2,0.1-2.9
		s1.5-0.9,1.5-1.5s0-2.8-0.5-3.2s-1.1,0.6-2.1,0.7s-1.9-1.2-2.3-1.4c-0.4-0.2-1.4-1.6-1.8-2.2c-0.4-0.6-1.5,0-2,0s-0.4-0.9-1.1-1.1
		s-5.1-1.6-5.5-1.6s-1.4-1-1.4-2s-0.4-2.4-0.6-2.9s-1.5-1.7-1.5-1.3s0.4,1.6,0.6,2s0.9,1.3,0,1.1s-1.8-3.6-1.8-3.6l-0.6-3.5
		l-0.8-1.6l-0.1-4.4l2.8-3.7v-3.3l0.6-4l-3.7-1.9L341.9,175.8L341.9,175.8L341.9,175.8z"/>
	<path class="st2" d="M351.4,177.3c1.1,0.1,3.2,1,3.7,1s-0.1,0.6-0.8,0.8c-0.7,0.2-0.3,0.5,0.5,0.8c0.8,0.3,1.2-0.9,1.8,0
		s-0.1,1.3,0,2.1c0.1,0.8,3.7,3,3.3,1.6s0.7-0.8,0.6-1.3c-0.1-0.5,0.6-1.8,0-2s-1.1-0.9-1.8-1c-0.7-0.1-2.2-0.2-2.2-0.8
		s0.6-1.6,1.1-1.3s2.1,0.9,2.9,1.1c0.8,0.2,3.1,3.9,3.9,3.9s1.4-0.1,1.9-1.1s1-2.7,1.1-2.9s-0.2-1.9-1.2-1.9s-6.4-2.1-7.6-1.6
		s-2.6,1.3-3.7,1.8C353.9,177,351.4,177.3,351.4,177.3L351.4,177.3z"/>
	<path class="st2" d="M367.5,172.8c0.4,0.1,2.9,3.5,2.9,3.5s3,2.2,3.5,2.3s1.8,0,2,0c0.2,0,2.1,0.4,2.1,0.9s2.3,1.7,2.2,2.3
		s0.7,2.8,1,2.8c0.3,0,1.4,0.6,1.3,1.6c-0.1,1,0.1,2.8,0.6,2.8s2.1,0,2.2,0.3c0.1,0.3,1.3,2.1,1.2,2.9c-0.1,0.8,0.4,5.1,0.7,6.3
		c0.3,1.2,3.5,8.2,5.6,8.8s2.2-1.6,2.2-0.5s0.1,3,0,4.5s-1.5,14.7-1.5,14.7l2.3-5.9l1.6-9.4l-0.7-8.7l-3.5-10.1l-9.3-11.6l-8.5-5.4
		L367.5,172.8L367.5,172.8L367.5,172.8z"/>
	<path class="st2" d="M328.1,184.2c-5.6,5.5-6.2,11.6-6.2,11.6l-82.9-9l-14.5-12.9L328.1,184.2L328.1,184.2z"/>
	<path class="st2" d="M258.1,193.9l18.6,13l42.3,5.2c-0.1-1.9,0.7-10.7,1-11.9L258.1,193.9L258.1,193.9L258.1,193.9z"/>
	<path class="st2" d="M292.1,212.8l17.7,13.1l13,1.9c0,0-3.7-7.1-3.8-11.3L292.1,212.8L292.1,212.8L292.1,212.8z"/>
	<path class="st2" d="M391.9,184.8c5.6,5.5,6.2,11.6,6.2,11.6l82.9-9l14.5-12.9L391.9,184.8L391.9,184.8L391.9,184.8z"/>
	<path class="st2" d="M461.8,194.3l-18.6,13l-42.3,5.2c0.1-1.9-0.7-10.7-1-11.9L461.8,194.3L461.8,194.3L461.8,194.3z"/>
	<path class="st2" d="M427.8,213.1L410,226.2l-13,1.9c0,0,3.7-7.1,3.8-11.3L427.8,213.1L427.8,213.1L427.8,213.1z"/>
</g>
<g transform="translate(188.31 128.16)">
	<g class="st3">
		<path class="st2" d="M124.8,22.3h-6l-1.3,3.7h-1.9l5.4-14.2h1.6l5.4,14.2h-1.9L124.8,22.3z M119.4,20.8h4.8l-2.4-6.7L119.4,20.8z"
			/>
		<path class="st2" d="M134,26h-1.9V11.8h1.9V26z"/>
		<path class="st2" d="M144.6,20.3h-3.3V26h-1.9V11.8h4.7c1.6,0,2.8,0.4,3.7,1.1s1.3,1.8,1.3,3.2c0,0.9-0.2,1.7-0.7,2.3
			s-1.1,1.1-2,1.5l3.3,6V26h-2L144.6,20.3z M141.3,18.8h2.9c0.9,0,1.7-0.2,2.2-0.7s0.8-1.1,0.8-1.9c0-0.9-0.3-1.6-0.8-2
			s-1.3-0.7-2.3-0.7h-2.9V18.8z"/>
		<path class="st2" d="M168.5,19.8h-6V26h-1.9V11.8h8.8v1.5h-6.9v4.9h6V19.8z"/>
		<path class="st2" d="M184.7,19.4c0,1.4-0.2,2.6-0.7,3.6s-1.1,1.8-2,2.4s-1.9,0.8-3,0.8c-1.1,0-2.1-0.3-3-0.8s-1.5-1.3-2-2.4
			s-0.7-2.2-0.7-3.5v-1c0-1.4,0.2-2.6,0.7-3.6s1.1-1.9,2-2.4s1.9-0.8,3-0.8c1.1,0,2.1,0.3,3,0.8s1.5,1.3,2,2.4s0.7,2.3,0.7,3.6V19.4
			z M182.8,18.5c0-1.7-0.3-3-1-3.9c-0.7-0.9-1.6-1.4-2.8-1.4c-1.2,0-2.1,0.5-2.8,1.4s-1,2.2-1,3.8v1c0,1.6,0.3,2.9,1,3.9
			s1.6,1.4,2.8,1.4c1.2,0,2.1-0.4,2.8-1.3s1-2.1,1-3.8V18.5z"/>
		<path class="st2" d="M194.7,20.3h-3.3V26h-1.9V11.8h4.7c1.6,0,2.8,0.4,3.7,1.1c0.9,0.7,1.3,1.8,1.3,3.2c0,0.9-0.2,1.7-0.7,2.3
			s-1.1,1.1-2,1.5l3.3,6V26h-2L194.7,20.3z M191.3,18.8h2.9c0.9,0,1.7-0.2,2.2-0.7c0.5-0.5,0.8-1.1,0.8-1.9c0-0.9-0.3-1.6-0.8-2
			c-0.5-0.5-1.3-0.7-2.3-0.7h-2.9V18.8z"/>
		<path class="st2" d="M214.2,21.5c-0.2,1.5-0.7,2.7-1.7,3.5c-0.9,0.8-2.2,1.2-3.7,1.2c-1.7,0-3-0.6-4-1.8c-1-1.2-1.5-2.8-1.5-4.8
			v-1.4c0-1.3,0.2-2.5,0.7-3.5c0.5-1,1.1-1.8,2-2.3c0.9-0.5,1.9-0.8,3-0.8c1.5,0,2.7,0.4,3.6,1.3c0.9,0.8,1.4,2,1.6,3.5h-1.9
			c-0.2-1.1-0.5-2-1.1-2.5c-0.5-0.5-1.3-0.8-2.3-0.8c-1.2,0-2.1,0.4-2.8,1.3c-0.7,0.9-1,2.1-1,3.8v1.4c0,1.5,0.3,2.8,1,3.7
			s1.5,1.4,2.7,1.4c1,0,1.8-0.2,2.4-0.7s0.9-1.3,1.1-2.5H214.2z"/>
		<path class="st2" d="M226.8,19.5h-6.2v5h7.2V26h-9V11.8h8.9v1.5h-7.1v4.6h6.2V19.5z"/>
	</g>
</g>
<rect x="233.4" y="272.1" class="st4" width="262" height="47.4"/>
<g class="st3">
	<path class="st2" d="M264.5,289.6h-8.3l-1.7,5h-3.9l8.1-21.3h3.3l8.1,21.3h-3.9L264.5,289.6z M257.2,286.6h6.2l-3.1-8.8
		L257.2,286.6z"/>
	<path class="st2" d="M280.3,286.4h-4.1v8.2h-3.7v-21.3h7.5c2.5,0,4.4,0.6,5.7,1.7c1.3,1.1,2,2.7,2,4.8c0,1.4-0.3,2.6-1,3.6
		s-1.6,1.7-2.9,2.2l4.8,8.9v0.2h-4L280.3,286.4z M276.2,283.4h3.8c1.2,0,2.2-0.3,2.9-0.9c0.7-0.6,1.1-1.5,1.1-2.6c0-1.1-0.3-2-1-2.7
		s-1.6-0.9-2.9-1h-3.9V283.4z"/>
	<path class="st2" d="M305.9,276.3h-6.7v18.3h-3.7v-18.3H289v-3h16.9V276.3z"/>
	<path class="st2" d="M319.6,289.1c0-0.9-0.3-1.7-1-2.2s-1.8-1-3.6-1.5s-3.1-1.1-4.1-1.7c-1.9-1.2-2.9-2.8-2.9-4.8
		c0-1.7,0.7-3.1,2.1-4.2s3.2-1.7,5.5-1.7c1.5,0,2.8,0.3,4,0.8s2.1,1.3,2.7,2.3c0.7,1,1,2.1,1,3.4h-3.7c0-1.1-0.3-2-1-2.6
		c-0.7-0.6-1.7-0.9-3-0.9c-1.2,0-2.2,0.3-2.8,0.8s-1,1.2-1,2.2c0,0.8,0.4,1.4,1.1,2s1.9,1,3.6,1.5s3,1.1,4,1.7
		c1,0.6,1.7,1.4,2.2,2.2c0.5,0.8,0.7,1.8,0.7,2.9c0,1.8-0.7,3.2-2,4.2s-3.2,1.6-5.5,1.6c-1.5,0-3-0.3-4.3-0.9
		c-1.3-0.6-2.3-1.4-3-2.4s-1.1-2.2-1.1-3.5h3.7c0,1.2,0.4,2.1,1.2,2.8s1.9,1,3.4,1c1.3,0,2.3-0.3,2.9-0.8S319.6,290,319.6,289.1z"/>
	<path class="st2" d="M333.1,288.8c0-1,0.3-1.9,0.8-2.7c0.5-0.8,1.6-1.8,3.2-2.9c-0.8-1-1.4-1.9-1.7-2.7s-0.5-1.4-0.5-2.1
		c0-1.7,0.5-3,1.5-4c1-1,2.4-1.5,4.1-1.5c1.6,0,2.8,0.5,3.8,1.4c1,0.9,1.5,2,1.5,3.4c0,0.9-0.2,1.7-0.7,2.5
		c-0.4,0.7-1.2,1.5-2.2,2.2l-1.5,1.1l4.1,4.9c0.6-1.2,0.9-2.5,0.9-3.9h3.1c0,2.6-0.6,4.8-1.8,6.5l3.1,3.7h-4.1l-1.2-1.4
		c-1.5,1.1-3.3,1.7-5.4,1.7s-3.8-0.6-5.1-1.7C333.8,292.1,333.1,290.6,333.1,288.8z M340.2,292.1c1.2,0,2.3-0.4,3.4-1.2l-4.7-5.5
		l-0.5,0.3c-1.2,0.9-1.8,1.9-1.8,3c0,1,0.3,1.8,1,2.4S339.1,292.1,340.2,292.1z M338.2,278.3c0,0.8,0.5,1.9,1.5,3.1l1.6-1.1l0.5-0.4
		c0.6-0.5,0.9-1.2,0.9-2.1c0-0.6-0.2-1-0.6-1.4c-0.4-0.4-1-0.6-1.6-0.6c-0.7,0-1.2,0.2-1.7,0.7S338.2,277.6,338.2,278.3z"/>
	<path class="st2" d="M377,287.7c-0.2,2.3-1.1,4.1-2.5,5.3c-1.5,1.3-3.4,1.9-5.8,1.9c-1.7,0-3.2-0.4-4.5-1.2c-1.3-0.8-2.3-2-3-3.4
		s-1.1-3.2-1.1-5.2v-2c0-2,0.4-3.8,1.1-5.3s1.7-2.7,3.1-3.5s2.9-1.2,4.6-1.2c2.4,0,4.2,0.6,5.7,1.9c1.4,1.3,2.3,3.1,2.5,5.4h-3.7
		c-0.2-1.5-0.6-2.6-1.3-3.3c-0.7-0.7-1.8-1-3.2-1c-1.6,0-2.8,0.6-3.7,1.8s-1.3,2.9-1.3,5.2v1.9c0,2.3,0.4,4.1,1.2,5.3
		c0.8,1.2,2,1.8,3.6,1.8c1.5,0,2.5-0.3,3.3-1s1.2-1.7,1.4-3.3H377z"/>
	<path class="st2" d="M388.1,286.4H384v8.2h-3.7v-21.3h7.5c2.5,0,4.4,0.6,5.7,1.7c1.3,1.1,2,2.7,2,4.8c0,1.4-0.3,2.6-1,3.6
		s-1.6,1.7-2.9,2.2l4.8,8.9v0.2h-4L388.1,286.4z M384,283.4h3.8c1.2,0,2.2-0.3,2.9-0.9c0.7-0.6,1.1-1.5,1.1-2.6c0-1.1-0.3-2-1-2.7
		s-1.6-0.9-2.9-1H384V283.4z"/>
	<path class="st2" d="M410.9,289.6h-8.3l-1.7,5h-3.9l8.1-21.3h3.3l8.1,21.3h-3.9L410.9,289.6z M403.7,286.6h6.2l-3.1-8.8
		L403.7,286.6z"/>
	<path class="st2" d="M431.2,285.6h-8.6v9H419v-21.3h13.5v3h-9.8v6.3h8.6V285.6z"/>
	<path class="st2" d="M451.1,276.3h-6.7v18.3h-3.7v-18.3h-6.6v-3h16.9V276.3z"/>
	<path class="st2" d="M464.8,289.1c0-0.9-0.3-1.7-1-2.2s-1.8-1-3.6-1.5s-3.1-1.1-4.1-1.7c-1.9-1.2-2.9-2.8-2.9-4.8
		c0-1.7,0.7-3.1,2.1-4.2s3.2-1.7,5.5-1.7c1.5,0,2.8,0.3,4,0.8s2.1,1.3,2.7,2.3c0.7,1,1,2.1,1,3.4h-3.7c0-1.1-0.3-2-1-2.6
		c-0.7-0.6-1.7-0.9-3-0.9c-1.2,0-2.2,0.3-2.8,0.8s-1,1.2-1,2.2c0,0.8,0.4,1.4,1.1,2s1.9,1,3.6,1.5s3,1.1,4,1.7
		c1,0.6,1.7,1.4,2.2,2.2c0.5,0.8,0.7,1.8,0.7,2.9c0,1.8-0.7,3.2-2,4.2s-3.2,1.6-5.5,1.6c-1.5,0-3-0.3-4.3-0.9
		c-1.3-0.6-2.3-1.4-3-2.4s-1.1-2.2-1.1-3.5h3.7c0,1.2,0.4,2.1,1.2,2.8s1.9,1,3.4,1c1.3,0,2.3-0.3,2.9-0.8S464.8,290,464.8,289.1z"/>
</g>
</svg>
