<?xml version="1.0" encoding="UTF-8"?><svg id="Layer_1" xmlns="http://www.w3.org/2000/svg" xmlns:xlink="http://www.w3.org/1999/xlink" viewBox="0 0 1366.38 766.33"><defs><style>.cls-1{fill:url(#linear-gradient);}.cls-2{fill:#e7aa39;}.cls-3{fill:#fe3e64;}.cls-4{fill:#a0b8b0;}.cls-5{opacity:.3;}</style><linearGradient id="linear-gradient" x1="1091.52" y1="832.88" x2="404.44" y2="76.17" gradientTransform="matrix(1, 0, 0, 1, 0, 0)" gradientUnits="userSpaceOnUse"><stop offset="0" stop-color="#3c5f6b"/><stop offset="1" stop-color="#303c42"/></linearGradient></defs><rect class="cls-1" y="0" width="1366.38" height="766.33"/><path class="cls-2" d="M1056.38,157.5c0,121.23-98.27,219.5-219.5,219.5-2.05,0-4.09-.03-6.13-.08-.37-.01-.74-.03-1.11-.04-97.66-3.16-179.2-70.12-204.29-160.56,0-.05-.02-.09-.03-.14-5.18-18.68-7.94-38.36-7.94-58.68C617.38,95.71,642.91,39.88,684,0h305.76c41.09,39.88,66.62,95.71,66.62,157.5Z"/><path class="cls-2" d="M863.86,0V374.52c-10.46,1.58-21.2,2.4-32.11,2.4h-1c-.37,0-.74,0-1.11-.01v-.03c1.14-7.42,1.73-15.03,1.73-22.77,0-82.33-66.73-149.07-149.06-149.07-20.18,0-39.41,4.02-56.96,11.28,0-.05-.02-.09-.03-.14-4.21-16.68-6.44-34.13-6.44-52.12C618.88,98.05,648.93,39.05,696.11,0h167.75Z"/><path class="cls-4" d="M625.35,216.32c-54.07,22.38-92.11,75.63-92.11,137.79,0,82.33,66.74,149.07,149.06,149.07,74.58,0,136.36-54.76,147.34-126.26h-.01c-98.6-.96-181.16-68.95-204.28-160.59Z"/><path class="cls-3" d="M682.31,205.04c-20.17,0-39.41,4.02-56.96,11.28,23.13,91.64,105.68,159.63,204.28,160.59h.01c1.14-7.43,1.73-15.05,1.73-22.8,0-82.33-66.74-149.07-149.07-149.07Z"/><rect class="cls-5" x=".38" width="1366" height="766"/></svg>