<?xml version="1.0" encoding="utf-8"?>
<!-- Generator: Adobe Illustrator 26.3.1, SVG Export Plug-In . SVG Version: 6.00 Build 0)  -->
<svg version="1.1" id="Layer_1" xmlns="http://www.w3.org/2000/svg" xmlns:xlink="http://www.w3.org/1999/xlink" x="0px" y="0px"
	 viewBox="0 0 1366 768" style="enable-background:new 0 0 1366 768;" xml:space="preserve">
<style type="text/css">
	.st0{fill:url(#SVGID_1_);}
	.st1{fill:#E7AA39;}
	.st2{fill:#A0B8B0;}
	.st3{fill:#FE3E64;}
	.st4{opacity:0.3;}
	.st5{opacity:0.5;}
	.st6{fill:#EFE8DC;}
</style>
<linearGradient id="SVGID_1_" gradientUnits="userSpaceOnUse" x1="1091.1445" y1="832.8845" x2="404.0643" y2="76.1682">
	<stop  offset="0" style="stop-color:#3C5F6B"/>
	<stop  offset="1" style="stop-color:#303C42"/>
</linearGradient>
<rect x="-0.4" class="st0" width="1366.4" height="766.3"/>
<path class="st1" d="M1056,157.5c0,121.2-98.3,219.5-219.5,219.5c-2,0-4.1,0-6.1-0.1c-0.4,0-0.7,0-1.1,0
	c-97.7-3.2-179.2-70.1-204.3-160.6c0-0.1,0-0.1,0-0.1c-5.2-18.7-7.9-38.4-7.9-58.7C617,95.7,642.5,39.9,683.6,0h305.8
	C1030.5,39.9,1056,95.7,1056,157.5z"/>
<path class="st1" d="M863.5,0v374.5c-10.5,1.6-21.2,2.4-32.1,2.4h-1c-0.4,0-0.7,0-1.1,0v0c1.1-7.4,1.7-15,1.7-22.8
	c0-82.3-66.7-149.1-149.1-149.1c-20.2,0-39.4,4-57,11.3c0-0.1,0-0.1,0-0.1c-4.2-16.7-6.4-34.1-6.4-52.1c0-66,30-125,77.2-164.1
	H863.5z"/>
<path class="st2" d="M625,216.3c-54.1,22.4-92.1,75.6-92.1,137.8c0,82.3,66.7,149.1,149.1,149.1c74.6,0,136.4-54.8,147.3-126.3
	c0,0,0,0,0,0C730.7,376,648.1,308,625,216.3z"/>
<path class="st3" d="M681.9,205c-20.2,0-39.4,4-57,11.3C648.1,308,730.7,376,829.3,376.9c0,0,0,0,0,0c1.1-7.4,1.7-15,1.7-22.8
	C831,271.8,764.3,205,681.9,205z"/>
<rect y="0" class="st4" width="1366" height="766"/>
<image style="overflow:visible;opacity:0.7;" width="2991" height="1683" xlink:href="9897BCCED4791007.jpg"  transform="matrix(0.4553 0 0 0.4553 4.098 0)">
</image>
<g>
	<defs>
		<rect id="SVGID_00000130636735212994133750000009043668593422677931_" x="838.7" y="514.1" width="203.7" height="431.9"/>
	</defs>
	<clipPath id="SVGID_00000013871348755876186110000004539876807170865040_">
		<use xlink:href="#SVGID_00000130636735212994133750000009043668593422677931_"  style="overflow:visible;"/>
	</clipPath>
</g>
<g class="st5">
	<path class="st6" d="M290.6,272.7c0.1,1.7-0.2,3.4-0.9,4.9c-0.7,1.6-1.9,2.8-3.5,3.6c-2.7,1.5-5.4,1.4-8-0.3
		c-2.6-1.8-5.2-3.4-8-4.8c-0.2-0.1-0.5-0.2-0.8-0.1c-0.7,0.3-1.5,0.6-2.4,0.9c-1.2,0.5-2.5,0.7-3.8,0.9c-0.7,0.1-1.3-0.1-2-0.2
		c-0.8-0.2-1.6-0.4-2.4-0.7c-0.7-0.2-1.3-0.5-2-0.9c-0.9-0.4-1-1.1-0.5-1.9c0.2-0.3,0.2-0.7,0.1-1c-0.8-1.6-1.3-3.4-1.4-5.2
		c-0.2-1.8-0.2-3.7,0-5.5c0.3-4.8,0.6-9.6,0.9-14.4c0-0.4-0.2-0.7-0.4-1c-0.6-0.9-1.2-1.8-1.7-2.7c-0.1-0.3,0-0.5,0.2-0.8
		c0.3-0.2,0.6-0.4,1-0.2c1,0.4,2.1,0.9,3,1.5c0.5,0.3,0.9,0.8,1,1.4c0.2,0.5,0.2,1.2,0.2,1.8c-0.1,1.5-0.2,2.9-0.4,4.3
		c-0.4,4.2-0.7,8.3-0.9,12.5c-0.1,1.7,0.2,3.3,0.9,4.8c0.2,0.5,0.5,1.1,1,1.5c0.2-0.4,0.5-0.9,0.8-1.4c0.2-0.4,0.5-0.9,0.7-1.3
		c0.1-0.3,0.1-0.5,0.2-0.9c0-0.1,0.1-0.2,0.1-0.3c0.2,0.2,0.3,0.2,0.5,0.1c0.2-0.2,0.2-0.3,0.2-0.5c1.2-2.3,2.4-4.5,3.6-6.8
		c0.2-0.5,0.1-0.7-0.4-0.8c-1.5-0.3-2.9-0.7-4.4-1c-0.3-0.1-0.6-0.1-0.9-0.1c-0.3,0-0.7-0.1-1-0.2c0.2-0.3,0.4-0.6,0.5-1
		c1.6-1.6,3.3-3.2,5-4.8c0.9-1,2-1.5,3.3-1.5c0.4,0,0.8-0.1,1.1-0.2c0.1-0.2,0.1-0.3,0.2-0.4c0-0.1,0-0.2,0.1-0.4
		c0.1-0.2,0.1-0.2,0.2-0.4c0.1-0.1,0.1-0.1,0-0.1c0.2-0.1,0.4-0.2,0.6-0.2c1,0.2,2.1,0.4,3.2,0.7c1.7,0.5,3.3,1.4,4.7,2.6
		c0.3,0.3,0.5,0.6,0.7,1c0.2,0.1,0.3,0.2,0.4,0.4c0.1-0.2,0.1-0.4,0.1-0.5c0.3-4.8,0.7-8.9,1.2-12.3c0.1-0.3,0.1-0.5-0.1-0.7
		c-1.2-0.7-2.4-1.3-3.6-1.7c-0.6-0.2-1.2-0.2-1.9,0c-0.6,0.2-1.1,0.7-1.5,1.2c-0.2,0.4-0.5,0.7-0.7,1.1c-0.1,0.1-0.2,0.2-0.2,0.4
		c0.2,0.3,0.2,0.7,0,1c-0.1,0.4-0.3,0.7-0.5,1c-0.5,0.9-1,1.7-1.6,2.6c-0.2,0.3-0.5,0.5-1,0.7c-1.6,0.6-3.3,1.2-4.9,1.7
		c-0.2,0.1-0.4,0.1-0.6,0l0.1-0.5c0.9-1.8,2-3.5,3.2-5c1.3-1.5,2.7-2.9,4.4-4c2.7-1.5,5.4-2.9,8.2-4.3c0.3-0.1,0.6-0.2,1-0.1
		c1.5,0.4,3,1,4.5,1.7c1.5,0.7,2.7,1.8,3.6,3.1c1,1.5,1.8,3.1,2.3,4.8c0.1,0.7,0,1.5-0.2,2.2c-0.2,0.7-0.3,1.4-0.4,2.1
		c-0.3,2.5-0.6,5-0.9,7.4c-0.1,1.4-0.2,2.9-0.1,4.3c0.1,1.4,0.2,2.9,0.4,4.3C290.2,266.9,290.4,269.9,290.6,272.7z M266.2,273.1
		l-0.1-0.2c-0.7-0.5-1.3-1-1.8-1.8c-0.5-0.7-1-1.4-1.5-2.1c-0.5-0.6-0.9-0.5-1.1,0.1c-0.1,0.7-0.1,1.3-0.1,1.9
		c0,0.2-0.1,0.5-0.2,0.7c-0.5,0.4-0.5,0.7,0,0.9c0.4,0.3,0.8,0.5,1.2,0.5h3.2v0.1C266,273.3,266.1,273.2,266.2,273.1z M279.9,265.1
		c-0.1-1.3-0.2-2.6-0.2-3.8c-0.2-2-0.3-4-0.4-6l-0.1-0.4c0,0.1-0.1,0.2-0.1,0.4c-0.1,0.1-0.1,0.2-0.2,0.3c-0.4,0.5-0.7,1-1,1.5
		c-0.2,0.5-0.5,0.9-0.9,1.3c-0.4,0.4-0.9,0.8-1.2,1.2c-0.1,0.1-0.2,0.1-0.3,0.1c-0.8,0.4-1.6,0.8-2.3,1.3l-4.2,2.6
		c0,0,0,0.1-0.1,0.1c0-0.1-0.1-0.1-0.1-0.1c-0.1-0.1-0.3-0.1-0.5-0.1c-0.3,0.2-0.7,0.4-1.1,0.5c-0.9-0.1-1.5,0.2-2,0.8
		c-1,0.9-1.9,1.9-2.7,3c-0.2,0.2-0.2,0.3-0.1,0.5c0.1,0.2,0.2,0.4,0.5,0.5c0.4,0.2,0.7,0.4,1.1,0.7c0.4,0.3,0.8,0.4,1.3,0.4
		c0.4,0.1,0.7,0.2,1,0.5c0.3,0.3,0.5,0.5,0.9,0.7c0.5,0.5,1.1,1,1.6,1.5c0.3,0.2,0.5,0.2,0.9,0.3l0.5-0.1c-0.1-0.1-0.2-0.2-0.3-0.4
		c-0.8-0.7-1.6-1.3-2.4-2c-0.1-0.2-0.1-0.3-0.2-0.4l0.5,0.1c1,0.7,2,1.4,3,2.1c0.4,0.3,0.8,0.4,1.2,0.2c2-0.4,4-0.9,6.1-1.5
		c0.2-0.2,0.4-0.4,0.5-0.6C279.8,268.7,280.2,267,279.9,265.1z M277.5,272.1c-0.2,0-0.5,0.1-1.2,0.1c-0.7,0.1-1.5,0.4-2.5,0.9
		c-0.2,0.2-0.3,0.4-0.4,0.7c0.2,0,0.4,0.1,0.6,0.2c0.2,0.1,0.4,0.1,0.6,0.1c0.9-0.5,1.7-1,2.5-1.6
		C277.3,272.4,277.4,272.2,277.5,272.1z"/>
	<path class="st6" d="M296.2,326c-0.1,0.2-0.2,0.4-0.3,0.5c0.1,0.7-0.1,1-0.9,0.9l-2-0.1H293c-0.8-0.4-1.6-0.8-2.4-1.2
		c-0.7-0.2-1.3-0.3-2-0.4c-0.2,0-0.5,0-0.7,0.1c-1.1-0.2-2.1-0.2-3.2,0c-0.1,0-0.2,0-0.2-0.1c0.1-0.1,0.2-0.2,0.2-0.3
		c1-0.2,2-0.4,2.9-0.7c0.2-0.1,0.3-0.2,0.5-0.2c-0.2-0.1-0.4-0.2-0.7-0.1c-1,0.2-2.1,0.5-3.2,0.8c-1.5,0.2-3.1,0.4-4.6,0.5
		c-0.4,0.1-0.5-0.1-0.4-0.5c0-0.1-0.1-0.1-0.2-0.2l-2.7,0.7c-0.1,0.1-0.3,0.2-0.4,0.2c-0.5,0.2-0.9,0.5-1.3,0.7
		c0.4,0.4,0.7,0.7,1.2,1c0.9,0.7,1.6,1.5,2.1,2.4c0.4,0.5,0.2,0.7-0.3,0.8c-0.2,0.1-0.2,0.2-0.2,0.4c0.2,0.4,0.1,0.6-0.4,0.7
		c-0.5,0.2-1.1,0.4-1.6,0.5c-0.4,0.1-1.2,0.3-2.3,0.5c-1,0.2-1.5,0.8-1.2,1.6c0.2,1.3,0.5,2.7,1,4.1c0.5,1,1.1,1.8,2,2.6
		c0.6,0.5,0.7,1.1,0.4,1.8c-0.4,0.5-0.9,0.9-1.5,1.1c-0.5,0.2-1.1,0.1-1.6-0.4c-1.3-0.8-2.1-2-2.4-3.5c-0.2-0.5-0.4-1-0.9-1.3
		c-0.5-0.5-0.5-1.1,0-1.6c0.1-0.1,0.2-0.2,0.3-0.4c0.8-1,0.6-1.7-0.6-2.1c-1.8-0.9-3.3-2.1-4.5-3.6c-0.2-0.3-0.2-0.5-0.1-0.9
		c0.2-0.3,0.4-0.5,0.5-0.7c0.7-0.9,1.5-1.7,2.3-2.5c0.7-0.8,1.6-1.5,2.6-2.1c0.3-0.2,0.4-0.6,0.4-1c-0.1-0.4-0.2-0.7-0.4-1
		c-0.4,0-0.9,0.1-1.2,0.4c-1.2,1-2.3,1.9-3.3,2.9c-0.9,0.7-1.9,1.4-3,2c-0.2,0.2-0.5,0.2-0.8,0.3c-0.2,0.1-0.5,0.1-0.7,0.2
		c-0.4,0.4-0.9,0.8-1.2,1.2c-0.1-0.2-0.4-0.2-0.6-0.1c-0.2,0.1-0.4,0.1-0.7,0.1c-0.2,0.1-0.4,0.3-0.5,0.5c-0.1,0.1-0.2,0.2-0.3,0.2
		c-0.4-0.2-0.9-0.2-1.2,0c-0.3,0.3-0.7,0.5-1,0.7c-0.1,0.1-0.1,0.1-0.2,0.2c0.1,0.1,0.2,0.1,0.2,0c0.2-0.1,0.4-0.1,0.7-0.2
		c0.2-0.1,0.4-0.1,0.7-0.1c-0.1,0.2-0.3,0.4-0.5,0.5c-0.6,0.3-1.2,0.5-1.8,0.7c-0.5,0.1-1,0.1-1.6,0.1c-0.3,0-0.6-0.1-0.9-0.1
		s-0.6-0.1-0.9-0.2c-0.6-0.4-1.2-0.9-1.8-1.3c-0.5-0.5-0.9-1.1-1.1-1.8c-0.1-0.2-0.2-0.5-0.4-0.7c-0.1-0.2-0.2-0.4-0.1-0.7
		c0.1-0.6,0.4-1.1,1-1.5c0.8-0.6,1.6-1.2,2.4-1.6c0.1-0.1,0.2-0.2,0.3-0.2c0.2,0.2,0.5,0.4,0.9,0.2c0.3-0.1,0.6-0.2,0.9-0.4
		c0.1,0,0.2,0,0.2,0.1c0,0.3,0.2,0.4,0.4,0.2c1.3-0.7,2.6-1.5,3.8-2.4c0.9-0.5,1.6-1.3,2.3-2.1c0.1-0.2,0.1-0.4,0.1-0.6
		c-0.2,0-0.5,0.1-0.8,0.1c0.1-0.2,0.3-0.4,0.4-0.5c0.4-0.4,0.7-0.7,1-1c0.1-0.1,0.3-0.2,0.4-0.3c-0.1,0.2-0.1,0.4-0.1,0.5
		c0.2-0.2,0.5-0.5,0.6-0.9c0.1-0.2,0.2-0.5,0.2-0.7c0.1-0.3,0.2-0.5,0.4-0.7c0.5-0.8,1-1.6,1.5-2.4c0.1-0.2,0-0.3-0.1-0.4
		c-1.6-1.1-3.3-2.3-4.9-3.4c-0.2-0.2-0.2-0.4-0.1-0.6c0.4-0.5,0.9-1,1.2-1.5c0.4-0.5,0.9-0.9,1.5-1.2c0.7-0.3,1.3-0.7,1.8-1.2
		c0.5-0.5,1.1-0.9,1.7-1.3c0.7-0.6,1.3-1.3,1.8-2c0.7-0.5,1.3-1.2,1.8-1.8c0.8-0.9,1.4-1.8,2-2.9c0.4-0.6,0.2-1.2-0.2-1.6
		c-0.3-0.3-0.5-0.7-0.7-1c-0.2-0.4-0.2-0.8-0.1-1.2c0.4-0.5,0.9-0.8,1.4-1c0.9-0.4,1.8-0.8,2.7-1c0-0.1,0.1-0.2,0.2-0.2
		c0-0.4,0.1-0.6,0.4-0.8c0.6,0,1.2,0.1,1.8,0.4c1.4,1.2,2.1,2.7,2.3,4.4l0.4,1.9c0.2,0.5,0.5,0.9,0.9,1.3c0.4,0.4,0.9,0.7,1.4,0.8
		c0.7,0,1.5,0.1,2.2,0.2c0.4,0.1,0.8,0.4,1,0.8c0.2,0.4,0.4,0.7,0.7,1c0.4,0.4,0.5,1,0.6,1.6c0.1,0.6,0.1,1.2,0.1,1.8
		c0.1,0.5-0.1,1-0.5,1.3c-0.4,0.3-0.8,0.7-1.2,1c-0.3,0.4-0.7,0.6-1.2,0.7c-0.5,0.1-0.9,0.2-1.3,0.4c-0.8,0.2-1.5,0.5-2.1,1
		c-1.1,0.9-2.1,1.8-3,2.9c-0.7,0.9-1.2,1.8-1.7,2.7c0,0.3,0.1,0.6,0.1,0.9c0.2,0,0.5-0.1,0.7-0.2c1.6-1.2,3.5-1.8,5.4-1.8
		c2,0.1,3.8,0.5,5.6,1.3c1,0.4,2,0.8,3,1.3c1.1,0.7,2.2,1.3,3.4,2c1.2,0.7,2.2,1.5,3.1,2.4c1,1.3,1.5,2.9,1.5,4.7
		C296.3,325.7,296.3,325.8,296.2,326z M281.6,319.4c0.2-0.3,0.1-0.6-0.3-0.8c-0.3-0.1-0.7-0.2-0.9-0.3c-0.5-0.2-1.2-0.4-1.8-0.7
		c-0.1,0-0.3,0-0.5,0.1c-0.2,0.1-0.4,0.1-0.5-0.1c-0.1-0.1-0.1-0.3-0.1-0.5h-0.1c-0.6-0.2-1.2-0.3-1.8-0.4c-0.4-0.1-0.7-0.2-0.9-0.2
		c-0.3-0.1-0.6,0-1,0.1c-0.7,0.7-1.1,1.5-1.3,2.5c-0.3,1.1-0.4,2.2-0.5,3.3c-0.2,1.3,0.3,2.3,1.3,3c0.1,0.1,0.3,0.1,0.5,0
		c2.8-1.3,5.2-3,7.3-5.2C281.2,320,281.4,319.8,281.6,319.4z"/>
	<path class="st6" d="M293.8,380.2c0.1,0.9,0.1,1.7-0.2,2.6c-0.2,0.9-0.5,1.7-0.8,2.6c-0.1,0.2-0.1,0.4-0.3,0.6
		c-0.5,0.2-0.9,0.6-1.1,1.2c-0.2,0.5-0.4,1-0.5,1.5c-0.1,0.1-0.2,0.3-0.2,0.4c-1.5,2.4-3.4,4.3-5.7,5.9c-1,0.6-2.1,1.2-3.2,1.6
		c-0.9,0.5-1.8,1-2.7,1.4c-0.9,0.5-2,0.9-3,1.3c-0.3,0.1-0.5,0.1-0.8-0.1c-0.1-0.2-0.1-0.4,0.1-0.6c0.1-0.6,0.4-1,0.9-1.3
		c0.4-0.3,0.9-0.5,1.5-0.7c2.2-0.7,4.1-1.7,6-3c3.1-2.4,4.6-5.5,4.6-9.4c0-3.8-1.3-7.3-3.9-10.2c-0.4-0.4-0.7-0.4-1-0.1
		c-0.9,0.8-1.7,1.5-2.6,2.2c-1.2,1.1-2.4,2.1-3.6,3.2c-1.7,1.7-3.4,3.4-5.1,5.2l-4.2,4c-0.9,0.7-1.7,1.5-2.4,2.3
		c-0.8,0.8-1.7,1.4-2.7,1.8c-1.5,0.7-2.9,1.5-4.3,2.4c-0.4,0.2-0.7,0.5-0.9,1c-0.2,0.2-0.5,0.4-0.9,0.4c-0.4,0-0.7-0.1-1-0.2
		c-0.5-0.3-1.1-0.5-1.8-0.7c-0.9-0.2-1.2-0.8-0.9-1.7c0-0.4-0.1-0.9-0.2-1.5c-0.4-1-0.6-1.9-0.7-2.9c-0.1-1,0-2,0.2-2.9
		c0-0.4,0.1-0.9,0.1-1.3s0.1-0.9,0.2-1.3c0.4-1.3,1-2.7,1.7-4.1c1.9-3.7,4.5-6.9,7.9-9.4c1.2-1,2.6-1.6,4.1-2c1.3-0.3,2.6-0.7,3.8-1
		h7.7c0.5,0,0.9-0.2,1.1-0.7c0.8-1.8,1.5-3.5,2.3-5.3c0.3-0.6,0.4-1.2,0.1-1.7c-0.2-0.5-0.5-1.1-0.9-1.5c-0.7-0.6-0.6-1.1,0.1-1.5
		c0.9-0.5,1.9-0.9,2.8-1.3c0.2-0.1,0.5-0.1,0.7-0.2c0.6-0.5,1.3-0.8,2-1c0.8-0.2,1.5-0.3,2.3-0.3c0.3-0.1,0.6,0,0.9,0.2
		c1,0.7,1.8,1.5,2.6,2.4c0.8,0.9,1.5,1.9,1.9,3c0.2,0.7,0.1,1.3-0.4,1.8c-1.3,1.5-2.4,3-3.5,4.4c-0.7,1-1.6,2.1-2.6,3
		c-0.5,0.4-0.4,0.8,0.1,1.2c3.1,2.2,5.2,5.1,6.4,8.7c0.1,0.5,0.1,1.2,0,1.8C293.8,380,293.8,380,293.8,380.2z M276.7,370.4
		c-0.6-0.1-1.3-0.1-1.9-0.1c-2.1-0.1-4.3-0.3-6.4-0.4c-1.8-0.1-3.4,0.2-5,1c-1.1,0.7-2.2,1.4-3.2,2.3c-1,0.9-1.8,1.9-2.4,3
		c-0.5,0.9-1,1.8-1.6,2.6c-0.4,0.7-0.7,1.3-1.1,2c-0.4,0.7-0.5,1.4-0.6,2.2c-0.1,0.8-0.2,1.6-0.4,2.5c0,0.8,0.1,1.6,0.1,2.5
		c0.1,0.5,0.2,1,0.5,1.5c0.1,0.3,0.2,0.7,0.3,1c0.1,0.4,0.2,0.6,0.5,0.8c0.7,0.2,1.4,0.4,2.1,0.5c0.7,0.1,1.3-0.1,2-0.5
		c1.8-0.9,3.5-2,5.1-3.4c4-3.7,7.4-7.8,10.2-12.4c0.7-1.5,1.5-3,2.1-4.6C277,370.7,276.9,370.5,276.7,370.4z"/>
	<path class="st6" d="M295.5,461.5c-0.1,0.3-0.3,0.5-0.5,0.5c-0.3,0-0.6,0-0.9-0.1c-0.4-0.1-0.7-0.2-1-0.3c-0.3-0.1-0.7-0.3-1-0.4
		c-0.4-0.1-0.8-0.1-1.2-0.2c-1-0.4-2.1-0.8-3-1.3c-0.9-0.4-1.9-0.5-2.9-0.1c-1.7,0.5-3.4,1-5.2,1.5c-0.3,0.1-0.6,0.1-1,0
		c-0.3-0.1-0.6-0.1-0.9-0.1c-0.1-0.1-0.1-0.1-0.1-0.1c0.1-0.1,0.2-0.2,0.3-0.2c1.6-0.5,3.2-1,4.8-1.5c1-0.4,2.1-0.9,3.2-1.3l0.7-0.7
		c-0.2-0.1-0.4-0.2-0.7-0.4c-1.4-0.7-2.9-1.3-4.4-1.9c-2.1-0.3-4-0.5-5.7-0.5c-1.8-0.1-3.4,0-4.8,0.2c-1.5,0.2-2.9,0.6-4.3,1.1
		c-0.7,0.1-1.3,0.2-2.1,0.4c-1.6,0.5-3,1.2-4.5,1.8l-4.3,2.5c-1.7,0.9-3.5,0.9-5.3,0.2c-0.5-0.2-1-0.4-1.5-0.6
		c-0.7-0.5-0.7-1-0.2-1.6c0.7-0.9,1.3-1.6,2.1-2.4c0.4-0.3,0.9-0.5,1.4-0.5c1.8-0.4,3.6-0.9,5.5-1.2c4-1.2,6.9-3.5,9-7
		c0.4-0.8,0.7-1.6,1.1-2.4c0.3-0.9,0.4-1.7,0.4-2.6c0.1-0.6-0.1-1.2-0.3-1.6c-1-1.4-1.5-2.9-1.3-4.5c0.1-0.4-0.1-0.7-0.5-0.9
		c-3.4-1.5-6.3-3.6-8.7-6.4c-0.4-0.5-0.4-0.9,0-1.2c0.4-0.5,0.9-1.1,1.3-1.5c0.8-0.7,1.6-0.8,2.4-0.3c0.2,0.1,0.4,0.2,0.6,0.2
		c1.1-0.2,2.3-0.4,3.5-0.5c1.2-0.1,2.4-0.5,3.5-1.3c0.9-0.4,1.8-0.9,2.6-1.3c0.9-0.4,1.7-1,2.4-1.8c0.2-0.5,0.5-1,0.8-1.5
		c0.2-0.2,0.4-0.5,0.6-0.8c0.2-0.2,0.5-0.4,0.9-0.4c0.1,0,0.2-0.1,0.4-0.2c0.1-0.4,0.3-0.6,0.6-0.6c0.4,0.1,0.7,0.2,1,0.4
		c1.2,0.5,2.5,1.1,3.7,1.8c1.2,0.7,2.3,1.5,3.3,2.6c0.9,1,1.6,2,2.2,3.1c0.2,0.4,0.2,0.8,0,1.1c-1.1,1.9-2.7,3.3-4.8,4.1
		c-0.5,0.2-1,0.4-1.5,0.8c-1.2,0.8-2.3,1.6-3.4,2.4c-0.9,0.5-1.5,1.4-1.8,2.4c-0.3,1-0.2,2,0.2,3c0.9,1.7,1.8,3.4,2.6,5.2
		c0.4,0.7,0.5,1.5,0.4,2.3c-0.1,0.8-0.5,1.5-1,2.1l-2.3,3.2c0,0.1,0,0.2,0.1,0.2c1.8,0.2,3.6,0.4,5.4,0.4c2.4,0.3,4.8,0.8,7.3,1.4
		c1.1,0.4,2.2,0.9,3.2,1.6c1,0.7,2,1.5,2.7,2.4C295.3,459.1,295.7,460.2,295.5,461.5z"/>
	<path class="st6" d="M291.2,522.7c0.7,1.6,0.2,2.6-1.5,2.9h-0.3l-3-0.9c-0.7-0.4-1.5-0.7-2.4-0.7c-0.1-0.1-0.2-0.1-0.4-0.2
		c-0.1-0.2-0.2-0.2-0.3-0.4c-0.2-0.1-0.5-0.2-0.8-0.3c-0.3-0.1-0.5-0.2-0.7-0.4c-0.2-0.2-0.4-0.3-0.7-0.2c-0.2,0.1-0.5,0.2-0.7,0.3
		c-0.2,0.1-0.3,0.3-0.4,0.5c-0.3,0.1-0.6,0.2-0.9,0.2c-0.2,0-0.5,0.1-0.8,0.1c-1.2,0.5-2.3,1.2-3.3,1.8c-0.1,0-0.2,0.1-0.3,0.1
		c0.1-0.1,0.2-0.2,0.3-0.2c1.7-1.3,3.5-2.6,5.4-3.7c0.7-0.5,0.7-1,0.3-1.6c-0.6-1-1.5-1.6-2.6-1.9c-0.4,0-0.7,0.2-1,0.5
		c-0.6,0.7-1.4,1.2-2.3,1.5c-1.6,0.7-3.2,1.5-4.8,2.4c-0.7,0.2-1.3,0.5-1.8,0.8c-1,0.7-2,1.4-2.9,2.3c-0.6,0.5-1.3,0.9-2.3,0.8
		c-0.9-0.1-1.6-0.4-2.1-1c-0.8-1-1.6-2-2.4-2.9c-0.8-0.7-1.2-1.6-1-2.7c-0.1-1.5,0.4-2.6,1.6-3.3c1.6-1.2,3.2-2.6,4.6-4
		c0.1-0.1,0.1-0.2,0.2-0.4h-0.5c-1.2,0.4-2.3,0.9-3.3,1.7s-1.9,1.6-2.8,2.4c-2.1,1.7-4.4,2.4-7,2.1c-0.2,0-0.5-0.1-0.7-0.3
		c-0.7-0.4-0.8-0.9-0.1-1.3l3.8-3.4c0.5-0.4,1-0.8,1.4-1.2c0.1-0.1,0.2-0.2,0.5-0.2c-0.1,0.2-0.2,0.3-0.2,0.5
		c-0.2,0.2-0.4,0.5-0.5,0.8c-0.1,0.1-0.2,0.3-0.2,0.5c0.2,0.1,0.4,0.1,0.6,0c1.4-0.5,2.7-1.1,4.1-1.6c1.2-0.5,2.5-1.1,3.8-1.6
		c1.5-0.5,3-1,4.6-1.3c2.2-0.6,4.4-1.2,6.6-1.6c2.3-0.5,4.5-0.9,6.8-1.2c0.7,0,1.3-0.1,2-0.1c1.3-0.2,2.7-0.4,4-0.7
		c0.3,0,0.7,0.1,1,0.2c1.8,0.7,3,1.8,3.8,3.5c0.2,1-0.1,1.6-1,2c-2,0.5-3.7,0.1-5.3-1.2c-0.9-0.8-1.9-1.3-3-1.4
		c-1.2-0.1-2.3,0-3.4,0.2l-4.5,0.7c-1.3,0.1-2.6,0.2-3.9,0.3c-0.1-0.1-0.2-0.1-0.3-0.1c-0.5,0.1-1,0.3-1.6,0.5
		c0.4,0.4,0.8,0.7,1.2,1.1c0.5,0.5,1.1,1,1.5,1.6c1.3,1.7,1.2,3.2-0.4,4.4c-1.2,1-2.3,2.1-3.3,3.2l-0.2,0.2c0.1,0,0.2,0,0.3-0.1
		c1-0.3,2.1-0.7,3.1-1.2c0.9-0.4,1.8-0.8,2.7-1.3c1.2-0.5,1.8-1.4,2.1-2.7c0-0.4-0.1-0.9-0.3-1.3c-0.2-0.4-0.4-0.8-0.6-1.3
		c-0.3-0.3-0.7-0.7-1-1c0-0.3,0.2-0.6,0.4-0.8c0.4-0.2,0.9-0.4,1.4-0.7c1.1-0.2,2.1-0.1,3.1,0.5c2.5,1.4,4.9,3,7.2,4.7
		c2.1,1.6,3.8,3.7,5.1,6.2C290.9,522,291,522.3,291.2,522.7z M249.9,494.7c1-1.2,2-2.3,3-3.3c1.7-1.6,3.7-3,5.9-4.1
		c0.1-0.1,0.3-0.2,0.5-0.2c0.4-0.1,0.6-0.5,0.5-1c-0.1-0.9-0.1-1.6,0.1-2.4c0-1.2,0.1-2.3,0.2-3.4c0.4-1.1,1.2-1.5,2.3-1.3
		c0.2-0.1,0.5-0.2,0.8-0.4c-0.1-0.1-0.2-0.1-0.2-0.1c-0.1-0.1-0.2-0.1-0.3-0.1c0.1-0.2,0.2-0.3,0.3-0.4c0.1-0.1,0.2-0.2,0.4-0.3
		c0.1-0.1,0.3-0.1,0.4-0.2c0.8,0.5,1.5,1.1,2.1,1.8c0.7,0.7,1.2,1.5,1.6,2.3c0.4,0.8,0.6,1.7,0.6,2.7c-0.2,2.5-0.4,5.1-0.5,7.7
		c0,0.2,0,0.4,0.1,0.5c0.2,0,0.4-0.1,0.6-0.2c2.1-2.1,4.6-3.8,7.4-4.9c0.3-0.2,0.5-0.5,0.6-1c0.3-1.7,0.5-3.4,0.7-5.2
		c0.2-1.6,0.5-3.2,0.9-4.9c0.2-0.7,0.6-1.3,1-1.9c0.2-0.2,0.5-0.2,0.7,0c0.5,0.2,0.9,0,1-0.7c0-0.5,0.2-0.5,0.5-0.1
		c1.5,1.3,2.5,2.9,3,4.8c0.2,0.6,0.1,1.2-0.4,1.6c-0.2,0.4-0.3,0.8-0.3,1.2c0,0.4-0.1,0.9-0.1,1.2c0.1,0.1,0.1,0.1,0.2,0.1
		c1.3,0,2.5-0.1,3.7-0.2c0.9-0.1,1.7,0,2.4,0.5c0.7,0.5,1.2,1.2,1.4,2.1c0,0.4-0.1,0.9-0.3,1.2c-1,1.1-2.3,1.6-3.8,1.6
		c-1.5,0.3-3,0.7-4.4,1.2c-0.3,0.2-0.5,0.4-0.8,0.7c-0.4,0.5-0.7,1.1-1.2,1.6c-0.1,0.1-0.1,0.1-0.1,0.1c-0.5,0.8-1,1.5-1.7,2
		c-0.7,0.5-1.3,1.2-1.9,1.8c-0.5,0.7-1.1,1.4-1.5,2.1c-0.1,0.2,0,0.4,0.1,0.5c0.2,0.3,0.4,0.6,0.6,0.9c0.4,0.3,0.7,0.6,1,1
		c0.3,0.4,0.4,0.8,0.4,1.3c0.1,0.3,0.3,0.5,0.5,0.9c0.3,0.2,0.3,0.5,0,0.8c-0.1,0-0.2,0.1-0.2,0.2c0.2,0.4,0.3,0.6,0.1,0.9
		c-0.2,0.2-0.5,0.4-0.7,0.4c-1.6,0.7-3.1,1.4-4.6,2.3c-0.5,0.3-1.2,0.4-1.7,0.3c-0.6-0.1-1.2-0.2-1.7-0.5c-1-0.5-2-1.2-2.8-2
		c-0.6-0.6-1.2-0.6-1.8-0.1c-1.3,1-2.6,2-4,2.9l-0.7,0.5c0.1-0.3,0.4-0.5,0.6-0.7c1.2-1.2,2.4-2.3,3.7-3.4c0.5-0.2,0.5-0.6,0.2-1
		l-1-1.3c-0.7-0.9-0.5-1.6,0.5-2.1c0.4-0.3,0.7-0.6,1-1c0,0,0,0,0-0.1v-0.1c-1.4,0.4-2.6,0-3.5-1.1c-0.1-0.1-0.3-0.1-0.5,0.1
		c-0.8,0.7-1.8,1-2.8,1c-2.1-0.2-4.1-0.5-6.1-0.7c-0.5-0.2-1.1-0.4-1.6-0.5C249.4,496.1,249.2,495.5,249.9,494.7z M265.9,497.3h0.4
		c1.2-0.6,2.3-1.1,3.5-1.5c1.2-0.4,2.5-0.5,3.7-0.4c0.1,0,0.2-0.1,0.2-0.2c0.4-1,0.7-2.1,1-3.2c0-0.2-0.1-0.4-0.1-0.6
		c-0.2,0-0.4,0.1-0.5,0.2c-1.2,0.9-2.5,1.2-3.9,1.2c-0.7,0.2-1.3,0.4-1.8,0.5c-0.7,0.2-1,0.7-0.9,1.4c0.1,0.9-0.4,1.6-1.2,2.1
		C266,496.9,266,497.1,265.9,497.3z"/>
</g>
</svg>
