<?xml version="1.0" encoding="utf-8"?>
<!-- Generator: Adobe Illustrator 26.3.1, SVG Export Plug-In . SVG Version: 6.00 Build 0)  -->
<svg version="1.1" id="Layer_1" xmlns="http://www.w3.org/2000/svg" xmlns:xlink="http://www.w3.org/1999/xlink" x="0px" y="0px"
	 viewBox="0 0 1366 768" style="enable-background:new 0 0 1366 768;" xml:space="preserve">
<style type="text/css">
	.st0{fill:#00308F;}
	.st1{fill:none;stroke:#F2F2F0;stroke-miterlimit:10;}
	.st2{fill:#F2F2F0;}
	.st3{enable-background:new    ;}
	.st4{fill:none;}
	.st5{fill:#FFFFFF;}
</style>
<rect x="0.5" y="0.5" class="st0" width="1366" height="768"/>
<g>
	<g>
		<circle class="st1" cx="682.5" cy="184.9" r="51.7"/>
		<path class="st2" d="M658.2,139.4c0,0,1.6,1.5,3,2.7c1.4,1.2,1.6,2.2,2.3,2.2s1.6,0.1,2.7,1.2c1.1,1.1,0.7,0.4,0.7-0.8
			c0-1.2,0-1.8,0.1-2.5c0.1-0.7,2.2,0.4,2.5,0.7c0.3,0.3,2.2,0.1,2.2,0.8c0,0.7-1.4,1-1.4,1.6c0,0.7,0,0,1.6-0.1s0.5-1,1.6-0.8
			c1.1,0.1,2.1,1,3,2.1c1,1.1,0.4,1.8,0,2.7c-0.4,1-3.4-0.4-5.1-0.5s-0.7,2.3-0.3,3.7c0.4,1.4,2.2,1.1,3.6,1.1s1,1.9,1.8,2.9
			c0.8,1,1.2-0.3,1.4-1.1c0.1-0.8-0.1-2.2-0.3-3.3c-0.1-1.1-0.7-1.8,0.8-3s3.1,1.1,4.4,1.1c1.2,0,0.8-1.1,1.6-0.7
			c0.8,0.4,0.7,1.4,1.2,2.2s2.3,1.2,3.7,2.1s1.2,1.4,2.2,1.5s2.1,2.5,1.4,2.5s-2.9,0.4-3.3,0s0-2.1-0.8-2.9
			c-0.8-0.8-1.6,0.7-2.5,1.5c-0.8,0.8-0.5,2.3,0.4,2.9c1,0.5,2.6-1.1,2.1-0.4s-1.6,2.2-2.2,2.5c-0.5,0.3-2.1,0.1-3,0.5
			c-1,0.4,0,1.6,0,2.3c0,0.7-1.2,0.1-1.9,0.1c-0.7,0-4.7,6.6-5.1,7.8c-0.4,1.2,1,5.6,0.7,5.9s-2.9-2.2-3-2.9
			c-0.1-0.7-2.3-1.9-3.7-1.9s-0.7,1.5-1.2,1.8c-0.5,0.3-1-0.5-2.6-0.8c-1.6-0.3-3,2.2-3.4,3.1c-0.4,1,0.8,4.1,0.8,5.3
			s2.9,0.8,3.8,0.5c1-0.3,0.5-1,0.8-1.9c0.3-1,2.2-0.8,2.7-0.1c0.5,0.7-0.5,4.1,0.1,4.4c0.7,0.3,2.2-0.5,2.9,0.4s0.8,4.4,1.5,4.8
			c0.7,0.4,3.7,0.1,4.9,0.1s2.9-2.3,3.6-3s5.3,0.7,6.4,0.7c1.1,0,2.2-1.2,3.4-1.2c1.2,0,0.5,1.9,1.8,2.6c1.2,0.7,2.9,1.2,4.8,1.2
			s1.4,1.1,2.7,1.6c1.4,0.5,1,1.5,1.4,2.3c0.4,0.8,2.6,0.8,3.4,0.8c0.8,0,1.8,0.4,3,0.4s3.1,0.1,4.4,0.5c1.2,0.4,0,1.6,0,3
			s-2.5,3.6-3.1,4.4c-0.7,0.8,0.1,1.8,0,3.1c-0.1,1.4-1,3.4-2.2,4.2c-1.2,0.8-4.1,2.9-5.1,3.8c-1,1-3.6,5.5-4,6s-2.1,0.8-3.1,0.8
			c-1.1,0-0.7,0.8-0.8,2.1s-2.7,1.4-3.3,1.8c-0.5,0.4-2.5,1.1-2.6,1.9s0,2.5-0.4,2.7c-0.4,0.3-1.5,0-1.5,0.5s1,0.8,1.9,1
			c1,0.1-0.3,0.8-0.5,1c-0.3,0.1-3.4-0.5-4.4-1c-1-0.4-0.5-4.2-0.7-5.3c-0.1-1.1,1.2-2.9,1.8-4.1c0.5-1.2,0.5-6.8,0-9.4
			c-2.5,0-9.2-8.3-9.7-9c-0.5-0.7-0.7-1.2-0.1-1.6s0.1-3,0.1-4s2.1-1.2,2.1-2.1s0-3.8-0.7-4.4c-0.7-0.5-1.5,0.8-2.9,1
			c-1.4,0.1-2.6-1.6-3.1-1.9c-0.5-0.3-1.9-2.2-2.5-3c-0.5-0.8-2.1,0-2.7,0c-0.7,0-0.5-1.2-1.5-1.5s-7-2.2-7.5-2.2s-1.9-1.4-1.9-2.7
			c0-1.4-0.5-3.3-0.8-4c-0.3-0.7-2.1-2.3-2.1-1.8s0.5,2.2,0.8,2.7c0.3,0.5,1.2,1.8,0,1.5c-1.2-0.3-2.5-4.9-2.5-4.9l-0.8-4.8
			l-1.1-2.2l-0.1-6l3.8-5.1v-4.5l0.8-5.5l-5.1-2.6L658.2,139.4L658.2,139.4L658.2,139.4z"/>
		<path class="st2" d="M671.3,141.4c1.5,0.1,4.4,1.4,5.1,1.4s-0.1,0.8-1.1,1.1c-1,0.3-0.4,0.7,0.7,1.1c1.1,0.4,1.6-1.2,2.5,0
			c0.8,1.2-0.1,1.8,0,2.9s5.1,4.1,4.5,2.2c-0.5-1.9,1-1.1,0.8-1.8c-0.1-0.7,0.8-2.5,0-2.7c-0.8-0.3-1.5-1.2-2.5-1.4
			c-1-0.1-3-0.3-3-1.1c0-0.8,0.8-2.2,1.5-1.8c0.7,0.4,2.9,1.2,4,1.5c1.1,0.3,4.2,5.3,5.3,5.3c1.1,0,1.9-0.1,2.6-1.5
			c0.7-1.4,1.4-3.7,1.5-4c0.1-0.3-0.3-2.6-1.6-2.6s-8.8-2.9-10.4-2.2c-1.6,0.7-3.6,1.8-5.1,2.5C674.6,141,671.3,141.4,671.3,141.4
			L671.3,141.4z"/>
		<path class="st2" d="M693.3,135.2c0.5,0.1,4,4.8,4,4.8s4.1,3,4.8,3.1c0.7,0.1,2.5,0,2.7,0s2.9,0.5,2.9,1.2c0,0.7,3.1,2.3,3,3.1
			c-0.1,0.8,1,3.8,1.4,3.8c0.4,0,1.9,0.8,1.8,2.2s0.1,3.8,0.8,3.8s2.9,0,3,0.4c0.1,0.4,1.8,2.9,1.6,4c-0.1,1.1,0.5,7,1,8.6
			c0.4,1.6,4.8,11.2,7.7,12c2.9,0.8,3-2.2,3-0.7s0.1,4.1,0,6.2s-2.1,20.1-2.1,20.1l3.1-8.1l2.2-12.9l-1-11.9l-4.8-13.8l-12.7-15.9
			l-11.6-7.4L693.3,135.2L693.3,135.2L693.3,135.2z"/>
		<path class="st2" d="M639.4,150.8c-7.7,7.5-8.5,15.9-8.5,15.9l-113.4-12.3l-19.8-17.7L639.4,150.8L639.4,150.8z"/>
		<path class="st2" d="M543.6,164.1l25.5,17.8L627,189c-0.1-2.6,1-14.6,1.4-16.3L543.6,164.1L543.6,164.1L543.6,164.1z"/>
		<path class="st2" d="M590.2,189.8l24.2,17.9l17.8,2.6c0,0-5.1-9.7-5.2-15.5L590.2,189.8L590.2,189.8L590.2,189.8z"/>
		<path class="st2" d="M726.6,151.5c7.7,7.5,8.5,15.9,8.5,15.9l113.4-12.3l19.8-17.7L726.6,151.5L726.6,151.5L726.6,151.5z"/>
		<path class="st2" d="M822.2,164.7l-25.5,17.8l-57.9,7.1c0.1-2.6-1-14.6-1.4-16.3L822.2,164.7L822.2,164.7L822.2,164.7z"/>
		<path class="st2" d="M775.7,190.4l-24.2,17.9l-17.8,2.6c0,0,5.1-9.7,5.2-15.5L775.7,190.4L775.7,190.4L775.7,190.4z"/>
	</g>
	<g transform="translate(188.31 128.16)">
		<g class="st3">
			<path class="st2" d="M430.5-23.5h-8.2l-1.8,5.1h-2.6l7.4-19.5h2.2l7.4,19.5h-2.6L430.5-23.5z M423.1-25.6h6.6l-3.3-9.1
				L423.1-25.6z"/>
			<path class="st2" d="M443.1-18.4h-2.6v-19.5h2.6V-18.4z"/>
			<path class="st2" d="M457.6-26.3h-4.6v7.9h-2.6v-19.5h6.4c2.2,0,3.9,0.5,5.1,1.5c1.2,1,1.8,2.4,1.8,4.4c0,1.2-0.3,2.3-1,3.2
				c-0.7,0.9-1.6,1.6-2.7,2l4.6,8.3v0.2h-2.8L457.6-26.3z M453.1-28.4h3.9c1.3,0,2.3-0.3,3-1c0.8-0.7,1.1-1.5,1.1-2.7
				c0-1.2-0.4-2.1-1.1-2.8c-0.7-0.6-1.8-1-3.1-1h-3.9V-28.4z"/>
			<path class="st2" d="M490.3-27h-8.2v8.6h-2.6v-19.5h12.1v2.1h-9.5v6.7h8.2V-27z"/>
			<path class="st2" d="M512.4-27.5c0,1.9-0.3,3.6-1,5c-0.6,1.4-1.6,2.5-2.7,3.3c-1.2,0.7-2.5,1.1-4.1,1.1c-1.5,0-2.9-0.4-4.1-1.1
				c-1.2-0.8-2.1-1.8-2.8-3.2c-0.7-1.4-1-3-1-4.8v-1.4c0-1.9,0.3-3.5,1-5c0.7-1.4,1.6-2.5,2.8-3.3c1.2-0.8,2.6-1.1,4.1-1.1
				c1.6,0,2.9,0.4,4.1,1.1c1.2,0.8,2.1,1.8,2.7,3.3c0.6,1.4,1,3.1,1,5V-27.5z M509.9-28.8c0-2.3-0.5-4.1-1.4-5.3
				c-0.9-1.2-2.2-1.9-3.9-1.9c-1.6,0-2.9,0.6-3.8,1.9c-0.9,1.2-1.4,2.9-1.4,5.1v1.4c0,2.2,0.5,4,1.4,5.3c0.9,1.3,2.2,1.9,3.9,1.9
				c1.7,0,2.9-0.6,3.8-1.8c0.9-1.2,1.4-2.9,1.4-5.2V-28.8z"/>
			<path class="st2" d="M526.2-26.3h-4.6v7.9H519v-19.5h6.4c2.2,0,3.9,0.5,5.1,1.5c1.2,1,1.8,2.4,1.8,4.4c0,1.2-0.3,2.3-1,3.2
				s-1.6,1.6-2.7,2l4.6,8.3v0.2h-2.8L526.2-26.3z M521.6-28.4h3.9c1.3,0,2.3-0.3,3-1c0.8-0.7,1.1-1.5,1.1-2.7c0-1.2-0.4-2.1-1.1-2.8
				c-0.7-0.6-1.8-1-3.1-1h-3.9V-28.4z"/>
			<path class="st2" d="M552.9-24.6c-0.2,2.1-1,3.6-2.3,4.8c-1.3,1.1-3,1.7-5.1,1.7c-2.3,0-4.1-0.8-5.5-2.5
				c-1.4-1.6-2.1-3.9-2.1-6.6v-1.9c0-1.8,0.3-3.4,1-4.8c0.6-1.4,1.6-2.4,2.7-3.2c1.2-0.7,2.6-1.1,4.1-1.1c2.1,0,3.7,0.6,5,1.7
				c1.2,1.2,2,2.8,2.2,4.8h-2.6c-0.2-1.6-0.7-2.7-1.5-3.4c-0.7-0.7-1.8-1-3.1-1c-1.6,0-2.9,0.6-3.9,1.8c-0.9,1.2-1.4,2.9-1.4,5.2
				v1.9c0,2.1,0.4,3.8,1.3,5c0.9,1.2,2.1,1.9,3.7,1.9c1.4,0,2.5-0.3,3.3-1c0.8-0.6,1.3-1.8,1.5-3.4H552.9z"/>
			<path class="st2" d="M570.2-27.4h-8.4v6.9h9.8v2.1h-12.4v-19.5h12.2v2.1h-9.7v6.3h8.4V-27.4z"/>
		</g>
	</g>
	<rect x="509.8" y="271.1" class="st4" width="358.5" height="64.9"/>
	<g class="st3">
		<path class="st2" d="M552.3,295.1H541l-2.4,6.8h-5.3l11-29.2h4.6l11,29.2h-5.3L552.3,295.1z M542.4,291h8.5l-4.2-12.1L542.4,291z"
			/>
		<path class="st2" d="M574,290.6h-5.7v11.2h-5.1v-29.2h10.3c3.4,0,6,0.8,7.8,2.3c1.8,1.5,2.7,3.7,2.7,6.6c0,2-0.5,3.6-1.4,4.9
			c-0.9,1.3-2.3,2.3-3.9,3l6.6,12.2v0.3h-5.4L574,290.6z M568.3,286.5h5.2c1.7,0,3-0.4,4-1.3c1-0.9,1.4-2,1.4-3.5
			c0-1.6-0.4-2.8-1.3-3.6c-0.9-0.9-2.2-1.3-4-1.3h-5.4V286.5z"/>
		<path class="st2" d="M609,276.8h-9.1v25.1h-5v-25.1h-9v-4.1H609V276.8z"/>
		<path class="st2" d="M627.7,294.3c0-1.3-0.5-2.3-1.4-3c-0.9-0.7-2.5-1.4-4.9-2.1s-4.2-1.5-5.6-2.4c-2.7-1.7-4-3.8-4-6.5
			c0-2.4,1-4.3,2.9-5.8c1.9-1.5,4.4-2.3,7.5-2.3c2,0,3.8,0.4,5.4,1.1c1.6,0.7,2.8,1.8,3.7,3.2c0.9,1.4,1.4,2.9,1.4,4.6h-5.1
			c0-1.5-0.5-2.7-1.4-3.6c-1-0.9-2.3-1.3-4.1-1.3c-1.7,0-2.9,0.4-3.9,1.1c-0.9,0.7-1.4,1.7-1.4,3c0,1.1,0.5,2,1.5,2.7
			c1,0.7,2.6,1.4,4.9,2.1s4.1,1.4,5.5,2.3c1.4,0.9,2.4,1.9,3,3c0.6,1.1,1,2.4,1,3.9c0,2.4-0.9,4.4-2.8,5.8s-4.4,2.2-7.6,2.2
			c-2.1,0-4.1-0.4-5.8-1.2c-1.8-0.8-3.1-1.9-4.1-3.2c-1-1.4-1.5-3-1.5-4.8h5.1c0,1.7,0.5,2.9,1.6,3.8c1.1,0.9,2.7,1.4,4.7,1.4
			c1.8,0,3.1-0.4,4-1.1C627.3,296.5,627.7,295.5,627.7,294.3z"/>
		<path class="st2" d="M646.2,294c0-1.3,0.4-2.6,1.1-3.7c0.7-1.1,2.2-2.5,4.3-4c-1.1-1.4-1.9-2.6-2.4-3.6c-0.4-1-0.7-2-0.7-2.9
			c0-2.3,0.7-4.1,2.1-5.4c1.4-1.3,3.3-2,5.6-2c2.1,0,3.9,0.6,5.2,1.9c1.4,1.3,2,2.8,2,4.6c0,1.2-0.3,2.3-0.9,3.4c-0.6,1-1.6,2-3,3.1
			l-2,1.4l5.6,6.7c0.8-1.6,1.2-3.4,1.2-5.4h4.2c0,3.6-0.8,6.5-2.5,8.8l4.3,5.1h-5.7l-1.6-1.9c-2.1,1.6-4.6,2.3-7.5,2.3
			c-2.9,0-5.2-0.8-6.9-2.3C647.1,298.4,646.2,296.4,646.2,294z M655.9,298.4c1.6,0,3.2-0.5,4.6-1.6l-6.4-7.5l-0.6,0.4
			c-1.6,1.2-2.4,2.6-2.4,4.2c0,1.3,0.4,2.4,1.3,3.3S654.4,298.4,655.9,298.4z M653.2,279.6c0,1.1,0.7,2.5,2.1,4.2l2.2-1.5l0.6-0.5
			c0.8-0.7,1.2-1.7,1.2-2.8c0-0.8-0.3-1.4-0.9-2c-0.6-0.5-1.3-0.8-2.2-0.8c-0.9,0-1.7,0.3-2.3,1
			C653.5,277.8,653.2,278.6,653.2,279.6z"/>
		<path class="st2" d="M706.2,292.4c-0.3,3.1-1.4,5.5-3.4,7.3c-2,1.7-4.7,2.6-8,2.6c-2.3,0-4.4-0.6-6.1-1.7
			c-1.8-1.1-3.1-2.7-4.1-4.7c-1-2-1.5-4.4-1.5-7.1v-2.7c0-2.8,0.5-5.2,1.5-7.3c1-2.1,2.4-3.7,4.2-4.9s3.9-1.7,6.3-1.7
			c3.2,0,5.8,0.9,7.8,2.6c2,1.7,3.1,4.2,3.4,7.4h-5.1c-0.2-2.1-0.9-3.6-1.8-4.5c-1-0.9-2.4-1.4-4.3-1.4c-2.2,0-3.9,0.8-5.1,2.4
			c-1.2,1.6-1.8,4-1.8,7.1v2.6c0,3.2,0.6,5.6,1.7,7.2c1.1,1.7,2.8,2.5,5,2.5c2,0,3.5-0.4,4.5-1.3s1.6-2.4,1.9-4.5H706.2z"/>
		<path class="st2" d="M721.5,290.6h-5.7v11.2h-5.1v-29.2H721c3.4,0,6,0.8,7.8,2.3c1.8,1.5,2.7,3.7,2.7,6.6c0,2-0.5,3.6-1.4,4.9
			c-0.9,1.3-2.3,2.3-3.9,3l6.6,12.2v0.3h-5.4L721.5,290.6z M715.8,286.5h5.2c1.7,0,3-0.4,4-1.3c1-0.9,1.4-2,1.4-3.5
			c0-1.6-0.4-2.8-1.3-3.6c-0.9-0.9-2.2-1.3-4-1.3h-5.4V286.5z"/>
		<path class="st2" d="M752.7,295.1h-11.3l-2.4,6.8h-5.3l11-29.2h4.6l11,29.2h-5.3L752.7,295.1z M742.8,291h8.5l-4.2-12.1L742.8,291
			z"/>
		<path class="st2" d="M780.5,289.5h-11.7v12.4h-5.1v-29.2h18.5v4.1h-13.5v8.7h11.7V289.5z"/>
		<path class="st2" d="M807.7,276.8h-9.1v25.1h-5v-25.1h-9v-4.1h23.2V276.8z"/>
		<path class="st2" d="M826.5,294.3c0-1.3-0.5-2.3-1.4-3c-0.9-0.7-2.5-1.4-4.9-2.1s-4.2-1.5-5.6-2.4c-2.7-1.7-4-3.8-4-6.5
			c0-2.4,1-4.3,2.9-5.8c1.9-1.5,4.4-2.3,7.5-2.3c2,0,3.8,0.4,5.4,1.1c1.6,0.7,2.8,1.8,3.7,3.2c0.9,1.4,1.4,2.9,1.4,4.6h-5.1
			c0-1.5-0.5-2.7-1.4-3.6c-1-0.9-2.3-1.3-4.1-1.3c-1.7,0-2.9,0.4-3.9,1.1c-0.9,0.7-1.4,1.7-1.4,3c0,1.1,0.5,2,1.5,2.7
			c1,0.7,2.6,1.4,4.9,2.1s4.1,1.4,5.5,2.3c1.4,0.9,2.4,1.9,3,3c0.6,1.1,1,2.4,1,3.9c0,2.4-0.9,4.4-2.8,5.8s-4.4,2.2-7.6,2.2
			c-2.1,0-4.1-0.4-5.8-1.2c-1.8-0.8-3.1-1.9-4.1-3.2s-1.5-3-1.5-4.8h5.1c0,1.7,0.5,2.9,1.6,3.8c1.1,0.9,2.7,1.4,4.7,1.4
			c1.8,0,3.1-0.4,4-1.1S826.5,295.5,826.5,294.3z"/>
	</g>
</g>
<g>
	<path class="st5" d="M354.8,463.4c-5.2,0-10-0.9-14.4-2.7c-4.4-1.8-8.3-4.2-11.6-7.4c-3.3-3.2-5.8-7-7.6-11.2
		c-1.8-4.3-2.7-9-2.7-14.2c0-5.1,0.9-9.8,2.7-14.2c1.8-4.3,4.3-8,7.6-11.2c3.3-3.2,7.1-5.7,11.5-7.4c4.4-1.8,9.2-2.7,14.4-2.7
		c4.9,0,9.6,0.8,13.9,2.4c4.3,1.6,8,4,11.1,7.3l-3.2,3.3c-3-2.9-6.3-5-10-6.3c-3.6-1.3-7.5-2-11.5-2c-4.5,0-8.6,0.8-12.5,2.3
		c-3.8,1.5-7.2,3.7-10,6.5c-2.8,2.8-5,6.1-6.6,9.8c-1.6,3.7-2.4,7.8-2.4,12.2s0.8,8.5,2.4,12.2c1.6,3.7,3.8,7,6.6,9.8
		c2.8,2.8,6.2,5,10,6.5c3.8,1.5,8,2.3,12.5,2.3c4.1,0,7.9-0.6,11.5-2c3.6-1.3,7-3.4,10-6.4l3.2,3.3c-3.1,3.3-6.8,5.7-11.1,7.3
		C364.3,462.6,359.7,463.4,354.8,463.4z"/>
	<path class="st5" d="M395.2,462.9v-74.2h5v74.2H395.2z"/>
	<path class="st5" d="M435.4,463.3c-3.9,0-7.2-0.6-10.1-1.9c-2.8-1.2-5-3-6.5-5.2c-1.5-2.3-2.2-4.9-2.2-7.8c0-2.7,0.6-5.1,1.9-7.2
		c1.2-2.2,3.3-3.9,6.1-5.3c2.9-1.4,6.7-2,11.5-2h19.2v3.9h-19.1c-5.4,0-9.2,1-11.4,3c-2.2,2-3.2,4.5-3.2,7.5c0,3.3,1.3,6,3.8,8
		c2.5,2,6.1,3,10.7,3c4.4,0,8.1-1,11.1-3c3-2,5.3-4.9,6.8-8.7l1.4,3.4c-1.4,3.8-3.8,6.8-7.2,9C444.8,462.2,440.6,463.3,435.4,463.3z
		 M454.2,462.9V451l-0.2-1.8v-19.6c0-4.9-1.3-8.6-3.9-11.1c-2.6-2.5-6.5-3.8-11.6-3.8c-3.6,0-6.9,0.6-10,1.9c-3.1,1.2-5.8,2.8-8,4.8
		l-2.5-3.6c2.6-2.3,5.7-4.1,9.4-5.5c3.7-1.3,7.5-1.9,11.5-1.9c6.5,0,11.4,1.6,14.9,4.9c3.5,3.3,5.2,8.1,5.2,14.6v33.1H454.2z"/>
	<path class="st5" d="M492.8,463.3c-4.3,0-8.4-0.6-12.1-1.9c-3.8-1.3-6.7-2.9-8.8-4.8l2.3-4c2,1.7,4.7,3.2,8,4.5
		c3.3,1.2,6.9,1.8,10.8,1.8c5.5,0,9.4-0.9,11.8-2.7c2.4-1.8,3.6-4.2,3.6-7.1c0-2.1-0.6-3.8-1.9-5c-1.2-1.2-2.9-2.2-4.9-2.9
		c-2.1-0.7-4.3-1.2-6.8-1.6c-2.5-0.4-4.9-0.9-7.4-1.5c-2.5-0.5-4.7-1.3-6.8-2.3c-2.1-1-3.7-2.4-5-4.2c-1.2-1.8-1.9-4.1-1.9-7
		c0-2.7,0.7-5.1,2.2-7.2c1.5-2.1,3.7-3.8,6.6-5.2c2.9-1.3,6.6-1.9,11-1.9c3.3,0,6.5,0.5,9.9,1.4c3.3,0.9,6,2.2,8,3.7l-2.3,4
		c-2.2-1.7-4.7-2.9-7.4-3.6c-2.7-0.7-5.5-1.1-8.3-1.1c-5.1,0-8.8,0.9-11.1,2.8c-2.4,1.9-3.6,4.2-3.6,7c0,2.2,0.6,4,1.9,5.2
		c1.2,1.3,2.9,2.3,5,3c2.1,0.7,4.3,1.3,6.8,1.7c2.5,0.4,4.9,0.9,7.4,1.5c2.5,0.5,4.7,1.3,6.8,2.2c2.1,1,3.7,2.3,4.9,4
		c1.2,1.7,1.9,4,1.9,6.8c0,2.9-0.8,5.4-2.4,7.5c-1.6,2.1-3.9,3.8-6.9,5C501,462.7,497.2,463.3,492.8,463.3z"/>
	<path class="st5" d="M540.6,463.3c-4.3,0-8.4-0.6-12.1-1.9c-3.8-1.3-6.7-2.9-8.8-4.8l2.3-4c2,1.7,4.7,3.2,8,4.5
		c3.3,1.2,6.9,1.8,10.8,1.8c5.5,0,9.4-0.9,11.8-2.7c2.4-1.8,3.6-4.2,3.6-7.1c0-2.1-0.6-3.8-1.9-5c-1.2-1.2-2.9-2.2-4.9-2.9
		c-2.1-0.7-4.3-1.2-6.8-1.6c-2.5-0.4-4.9-0.9-7.4-1.5c-2.5-0.5-4.7-1.3-6.8-2.3c-2.1-1-3.7-2.4-5-4.2c-1.2-1.8-1.9-4.1-1.9-7
		c0-2.7,0.7-5.1,2.2-7.2c1.5-2.1,3.7-3.8,6.6-5.2c2.9-1.3,6.6-1.9,11-1.9c3.3,0,6.5,0.5,9.9,1.4c3.3,0.9,6,2.2,8,3.7l-2.3,4
		c-2.2-1.7-4.7-2.9-7.4-3.6c-2.7-0.7-5.5-1.1-8.3-1.1c-5.1,0-8.8,0.9-11.1,2.8c-2.4,1.9-3.6,4.2-3.6,7c0,2.2,0.6,4,1.9,5.2
		c1.2,1.3,2.9,2.3,5,3c2.1,0.7,4.3,1.3,6.8,1.7c2.5,0.4,4.9,0.9,7.4,1.5c2.5,0.5,4.7,1.3,6.8,2.2c2.1,1,3.7,2.3,4.9,4
		c1.2,1.7,1.9,4,1.9,6.8c0,2.9-0.8,5.4-2.4,7.5c-1.6,2.1-3.9,3.8-6.9,5C548.8,462.7,545,463.3,540.6,463.3z"/>
	<path class="st5" d="M596.4,463.3c-5.3,0-9.9-1.1-13.9-3.4c-4-2.3-7.2-5.4-9.5-9.4c-2.3-4-3.5-8.6-3.5-13.7c0-5.2,1.1-9.8,3.2-13.8
		c2.2-4,5.1-7.1,9-9.4c3.8-2.3,8.1-3.4,12.8-3.4c4.7,0,9,1.1,12.8,3.3c3.8,2.2,6.7,5.3,8.9,9.2c2.2,4,3.2,8.5,3.2,13.8
		c0,0.2,0,0.4,0,0.6c0,0.2,0,0.5,0,0.8h-46.1v-3.9h43.4l-2,1.9c0.1-4.1-0.8-7.7-2.5-10.9c-1.8-3.2-4.2-5.8-7.2-7.6
		c-3-1.8-6.5-2.8-10.4-2.8c-3.9,0-7.3,0.9-10.4,2.8c-3,1.8-5.4,4.4-7.1,7.6c-1.7,3.2-2.6,6.9-2.6,11v0.9c0,4.3,1,8.1,2.9,11.4
		s4.5,5.9,7.9,7.7c3.3,1.8,7.1,2.8,11.4,2.8c3.3,0,6.5-0.6,9.4-1.8c2.9-1.2,5.4-3,7.4-5.5l2.9,3.3c-2.3,2.8-5.1,4.9-8.5,6.3
		C604.1,462.6,600.4,463.3,596.4,463.3z"/>
	<path class="st5" d="M648,463.3c-4.3,0-8.4-0.6-12.1-1.9c-3.8-1.3-6.7-2.9-8.8-4.8l2.3-4c2,1.7,4.7,3.2,8,4.5
		c3.3,1.2,6.9,1.8,10.8,1.8c5.5,0,9.4-0.9,11.8-2.7c2.4-1.8,3.6-4.2,3.6-7.1c0-2.1-0.6-3.8-1.9-5c-1.2-1.2-2.9-2.2-4.9-2.9
		c-2.1-0.7-4.3-1.2-6.8-1.6c-2.5-0.4-4.9-0.9-7.4-1.5c-2.5-0.5-4.7-1.3-6.8-2.3c-2.1-1-3.7-2.4-5-4.2c-1.2-1.8-1.9-4.1-1.9-7
		c0-2.7,0.7-5.1,2.2-7.2c1.5-2.1,3.7-3.8,6.6-5.2c2.9-1.3,6.6-1.9,11-1.9c3.3,0,6.5,0.5,9.9,1.4c3.3,0.9,6,2.2,8,3.7l-2.3,4
		c-2.2-1.7-4.7-2.9-7.4-3.6c-2.7-0.7-5.5-1.1-8.3-1.1c-5.1,0-8.8,0.9-11.1,2.8c-2.4,1.9-3.6,4.2-3.6,7c0,2.2,0.6,4,1.9,5.2
		c1.2,1.3,2.9,2.3,5,3c2.1,0.7,4.3,1.3,6.8,1.7c2.5,0.4,4.9,0.9,7.4,1.5c2.5,0.5,4.7,1.3,6.8,2.2c2.1,1,3.7,2.3,4.9,4
		c1.2,1.7,1.9,4,1.9,6.8c0,2.9-0.8,5.4-2.4,7.5c-1.6,2.1-3.9,3.8-6.9,5C656.3,462.7,652.5,463.3,648,463.3z"/>
	<path class="st5" d="M725.7,463.4c-4.4,0-8.3-0.7-11.8-2.2c-3.4-1.5-6.1-3.5-8.1-6.1c-2-2.6-3-5.7-3-9.2c0-2.9,0.6-5.5,1.9-8
		c1.3-2.4,3.4-4.9,6.2-7.3c2.9-2.4,6.8-5,11.7-7.8c4.3-2.5,7.6-4.6,10.1-6.4c2.5-1.8,4.2-3.5,5.2-5.2c1-1.7,1.5-3.5,1.5-5.4
		c0-2.9-1-5.2-2.8-6.9c-1.9-1.7-4.6-2.6-8.2-2.6c-3.7,0-6.6,1-8.8,2.8c-2.1,1.9-3.1,4.4-3.1,7.6c0,1.5,0.2,2.9,0.7,4.2
		c0.5,1.3,1.3,2.8,2.6,4.5c1.2,1.6,2.9,3.7,5.1,6l37.1,39.1l-3,3.3l-38.2-40.2c-2.3-2.5-4.2-4.6-5.5-6.5c-1.3-1.9-2.2-3.6-2.8-5.2
		c-0.5-1.6-0.8-3.3-0.8-5.1c0-2.9,0.7-5.4,2-7.5c1.4-2.1,3.3-3.8,5.8-5c2.5-1.2,5.4-1.8,8.8-1.8c3.1,0,5.9,0.5,8.2,1.6
		c2.3,1.1,4.1,2.6,5.3,4.5c1.3,2,1.9,4.3,1.9,7.2c0,2.5-0.6,4.8-1.8,6.8c-1.2,2.1-3.1,4.2-5.9,6.3c-2.7,2.1-6.5,4.5-11.2,7.2
		c-4.4,2.5-7.9,4.8-10.4,6.9c-2.5,2.1-4.3,4.1-5.3,6.1c-1,2-1.6,4.1-1.6,6.4c0,2.7,0.8,5.1,2.3,7.2c1.5,2.1,3.6,3.7,6.3,4.8
		c2.7,1.1,5.8,1.7,9.5,1.7c4.8,0,9.1-1,12.8-3c3.7-2,6.9-4.9,9.4-8.9c2.5-4,4.4-9,5.5-15.1l4.1,1.3c-1.3,6.6-3.4,12.1-6.3,16.6
		c-2.9,4.4-6.6,7.8-10.9,10C736.2,462.3,731.3,463.4,725.7,463.4z"/>
	<path class="st5" d="M814.5,462.9v-65.4h-25.2v-4.6h55.5v4.6h-25.2v65.4H814.5z"/>
	<path class="st5" d="M870.7,463.3c-5,0-9.5-1.1-13.3-3.4c-3.9-2.3-7-5.4-9.3-9.4c-2.3-4-3.4-8.6-3.4-13.7c0-5.2,1.1-9.8,3.4-13.8
		c2.3-4,5.4-7.1,9.3-9.4c3.9-2.3,8.3-3.4,13.3-3.4s9.5,1.1,13.4,3.4c3.9,2.3,7,5.4,9.3,9.4c2.3,4,3.4,8.5,3.4,13.8
		c0,5.1-1.1,9.7-3.4,13.7c-2.3,4-5.4,7.1-9.3,9.4C880.2,462.1,875.7,463.3,870.7,463.3z M870.7,458.8c4,0,7.6-0.9,10.8-2.8
		c3.2-1.8,5.7-4.4,7.5-7.8c1.8-3.3,2.7-7.2,2.7-11.5c0-4.4-0.9-8.2-2.7-11.6c-1.8-3.3-4.3-5.9-7.5-7.7c-3.2-1.8-6.8-2.8-10.8-2.8
		s-7.6,0.9-10.8,2.8c-3.2,1.8-5.7,4.4-7.5,7.7c-1.8,3.3-2.8,7.2-2.8,11.6c0,4.3,0.9,8.2,2.8,11.5c1.8,3.3,4.3,5.9,7.5,7.8
		C863.2,457.9,866.7,458.8,870.7,458.8z"/>
	<path class="st5" d="M933.5,463.3c-4.5,0-8.3-0.8-11.6-2.5c-3.3-1.6-5.8-4.1-7.5-7.4c-1.8-3.3-2.7-7.4-2.7-12.2v-30.5h5v30.1
		c0,5.9,1.5,10.3,4.5,13.4c3,3.1,7.2,4.6,12.7,4.6c3.9,0,7.3-0.8,10.2-2.5c2.9-1.7,5.1-4,6.6-7.1c1.5-3,2.3-6.6,2.3-10.8v-27.8h5
		v52.2h-4.8v-14.5l0.7,1.7c-1.5,4.1-4.1,7.3-7.7,9.6C942.7,462.1,938.5,463.3,933.5,463.3z"/>
	<path class="st5" d="M979.2,462.9v-52.2h4.8V425l-0.5-1.6c1.5-4.2,3.9-7.4,7.4-9.7c3.5-2.3,7.8-3.4,13-3.4v4.9c-0.2,0-0.4,0-0.6,0
		c-0.2,0-0.4,0-0.6,0c-5.8,0-10.3,1.8-13.6,5.5c-3.3,3.6-4.9,8.7-4.9,15.1v27.2H979.2z"/>
	<path class="st5" d="M1031.5,463.3c-4.3,0-8.4-0.6-12.1-1.9c-3.8-1.3-6.7-2.9-8.8-4.8l2.3-4c2,1.7,4.7,3.2,8,4.5
		c3.3,1.2,6.9,1.8,10.8,1.8c5.5,0,9.4-0.9,11.8-2.7c2.4-1.8,3.6-4.2,3.6-7.1c0-2.1-0.6-3.8-1.9-5c-1.2-1.2-2.9-2.2-5-2.9
		c-2.1-0.7-4.3-1.2-6.8-1.6c-2.5-0.4-4.9-0.9-7.4-1.5c-2.5-0.5-4.7-1.3-6.8-2.3s-3.7-2.4-4.9-4.2c-1.2-1.8-1.9-4.1-1.9-7
		c0-2.7,0.7-5.1,2.2-7.2c1.5-2.1,3.7-3.8,6.6-5.2c2.9-1.3,6.6-1.9,11-1.9c3.3,0,6.6,0.5,9.9,1.4c3.3,0.9,6,2.2,8,3.7l-2.3,4
		c-2.2-1.7-4.7-2.9-7.4-3.6c-2.7-0.7-5.5-1.1-8.3-1.1c-5.1,0-8.8,0.9-11.2,2.8c-2.4,1.9-3.5,4.2-3.5,7c0,2.2,0.6,4,1.9,5.2
		c1.2,1.3,2.9,2.3,4.9,3c2.1,0.7,4.3,1.3,6.8,1.7c2.5,0.4,4.9,0.9,7.4,1.5c2.5,0.5,4.7,1.3,6.8,2.2c2.1,1,3.7,2.3,5,4
		c1.2,1.7,1.9,4,1.9,6.8c0,2.9-0.8,5.4-2.4,7.5c-1.6,2.1-3.9,3.8-7,5C1039.8,462.7,1036,463.3,1031.5,463.3z"/>
</g>
</svg>
